<mxfile host="app.diagrams.net" agent="Mozilla/5.0 (Windows NT 10.0; Win64; x64) AppleWebKit/537.36 (KHTML, like Gecko) Chrome/126.0.0.0 Safari/537.36" version="24.7.5">
  <diagram name="Page-1" id="L0RF7IfBTXDdPvIl7qAP">
    <mxGraphModel dx="1434" dy="790" grid="1" gridSize="10" guides="1" tooltips="1" connect="1" arrows="1" fold="1" page="1" pageScale="1" pageWidth="827" pageHeight="1169" math="0" shadow="0">
      <root>
        <mxCell id="0" />
        <mxCell id="1" parent="0" />
        <mxCell id="IQooOVWUPXinytKuFh4k-3" value="" style="edgeStyle=orthogonalEdgeStyle;rounded=0;orthogonalLoop=1;jettySize=auto;html=1;" edge="1" parent="1" source="IQooOVWUPXinytKuFh4k-1" target="IQooOVWUPXinytKuFh4k-2">
          <mxGeometry relative="1" as="geometry" />
        </mxCell>
        <mxCell id="IQooOVWUPXinytKuFh4k-1" value="REACT" style="ellipse;whiteSpace=wrap;html=1;" vertex="1" parent="1">
          <mxGeometry x="50" y="120" width="120" height="80" as="geometry" />
        </mxCell>
        <mxCell id="IQooOVWUPXinytKuFh4k-5" value="" style="edgeStyle=orthogonalEdgeStyle;rounded=0;orthogonalLoop=1;jettySize=auto;html=1;" edge="1" parent="1" source="IQooOVWUPXinytKuFh4k-2" target="IQooOVWUPXinytKuFh4k-4">
          <mxGeometry relative="1" as="geometry" />
        </mxCell>
        <mxCell id="IQooOVWUPXinytKuFh4k-2" value="TYPESCRIPT" style="ellipse;whiteSpace=wrap;html=1;" vertex="1" parent="1">
          <mxGeometry x="250" y="120" width="120" height="80" as="geometry" />
        </mxCell>
        <mxCell id="IQooOVWUPXinytKuFh4k-8" value="" style="edgeStyle=orthogonalEdgeStyle;rounded=0;orthogonalLoop=1;jettySize=auto;html=1;" edge="1" parent="1" source="IQooOVWUPXinytKuFh4k-4" target="IQooOVWUPXinytKuFh4k-7">
          <mxGeometry relative="1" as="geometry" />
        </mxCell>
        <mxCell id="IQooOVWUPXinytKuFh4k-4" value="POSTGRESQL" style="ellipse;whiteSpace=wrap;html=1;" vertex="1" parent="1">
          <mxGeometry x="450" y="120" width="120" height="80" as="geometry" />
        </mxCell>
        <mxCell id="IQooOVWUPXinytKuFh4k-6" value="NOTSPOTIFY" style="text;html=1;align=center;verticalAlign=middle;whiteSpace=wrap;rounded=0;strokeWidth=1;fontSize=34;" vertex="1" parent="1">
          <mxGeometry x="284" y="30" width="260" height="30" as="geometry" />
        </mxCell>
        <mxCell id="IQooOVWUPXinytKuFh4k-7" value="" style="ellipse;whiteSpace=wrap;html=1;" vertex="1" parent="1">
          <mxGeometry x="650" y="120" width="120" height="80" as="geometry" />
        </mxCell>
      </root>
    </mxGraphModel>
  </diagram>
</mxfile>
